<svg width="764" height="342" viewBox="0 0 764 342" fill="none" xmlns="http://www.w3.org/2000/svg">
<path fill-rule="evenodd" clip-rule="evenodd" d="M154.165 23.1929C139.158 8.18574 114.6 0 90.0431 0C73.6716 0 57.3002 4.09287 42.293 6.82145C27.2858 9.55003 13.6429 10.9143 0 13.6429V259.215L25.9215 255.122C31.3787 253.758 35.4715 249.665 35.4715 244.208V170.536C57.3002 174.629 81.8574 178.722 88.6788 178.722C113.236 178.722 137.793 170.536 154.165 154.165C170.536 137.793 177.358 113.236 178.722 88.6788C178.722 65.4859 170.536 39.5644 154.165 23.1929ZM129.61 129.609C120.06 139.159 103.689 143.252 90.0456 143.252C72.3099 143.252 54.5741 137.795 36.8383 135.066V135.066V43.659C39.5669 43.659 72.3099 35.4732 90.0456 35.4732C105.053 35.4732 120.06 39.5661 129.61 49.1161C139.16 58.6661 143.253 75.0376 143.253 90.0448C143.253 103.688 139.16 120.059 129.61 129.609Z" fill="#2B59C3"/>
<path fill-rule="evenodd" clip-rule="evenodd" d="M522.525 88.6838C506.154 85.9552 489.782 81.8623 474.775 81.8623C450.218 81.8623 425.661 90.048 409.289 105.055C392.918 121.427 384.732 145.984 384.732 170.541C384.732 195.098 392.918 219.656 409.289 236.027C425.661 252.399 450.218 260.584 474.775 260.584C481.597 260.584 506.154 256.491 527.982 252.399C527.982 260.584 527.982 268.77 527.982 276.956C527.982 286.506 523.89 294.692 517.068 300.149C506.154 308.334 491.147 306.97 478.868 304.242C465.225 302.877 452.946 298.784 440.668 294.692C436.575 293.327 432.482 294.692 428.389 297.42L410.653 315.156V315.156C429.754 327.434 452.946 335.62 474.775 339.713C496.604 343.806 518.432 342.442 536.168 328.799C538.897 326.07 542.99 323.342 545.718 320.613C557.997 306.97 562.09 290.599 562.09 274.227C562.09 264.677 562.09 256.491 562.09 246.941V95.5052C549.811 92.7766 536.168 91.4123 522.525 88.6838H522.525ZM527.985 215.562C527.985 216.926 527.985 216.926 527.985 215.562C510.249 219.655 492.513 223.748 474.778 223.748C459.77 223.748 444.763 219.655 435.213 210.105C425.663 200.555 421.57 185.548 421.57 170.541C421.57 155.533 425.663 140.526 435.213 129.612C444.763 120.062 459.77 115.969 474.778 115.969C492.513 115.969 526.621 124.155 529.349 124.155V215.562H527.985Z" fill="#2B59C3"/>
<path fill-rule="evenodd" clip-rule="evenodd" d="M739.443 105.046C723.072 88.675 698.514 81.8535 673.957 80.4893C649.4 80.4893 624.843 88.675 608.471 105.046C592.1 121.418 585.278 145.975 583.914 170.532V170.532C583.914 195.09 592.1 219.647 608.471 236.018C624.843 252.39 649.4 259.211 673.957 260.576V260.576C698.514 260.576 723.072 252.39 739.443 236.018C755.815 219.647 764 195.09 764 170.532V169.168C764 145.975 755.815 121.418 739.443 105.046ZM714.884 211.465C705.334 221.015 688.962 225.108 675.319 225.108C660.312 225.108 645.305 221.015 635.755 211.465C626.205 201.915 622.112 185.544 622.112 170.536C622.112 155.529 626.205 140.522 635.755 130.972C645.305 121.422 661.676 117.329 676.683 117.329C691.691 117.329 706.698 121.422 716.248 130.972C725.798 140.522 729.891 156.894 729.891 171.901C728.526 185.544 724.434 201.915 714.884 211.465Z" fill="#2B59C3"/>
<path fill-rule="evenodd" clip-rule="evenodd" d="M339.708 105.046C323.336 88.675 298.779 81.8535 274.222 80.4893C249.665 80.4893 225.107 88.675 208.736 105.046C192.364 121.418 184.179 145.975 184.179 170.532C184.179 195.09 192.364 219.647 208.736 236.018C225.107 252.39 249.665 259.211 274.222 260.576C293.322 260.576 313.786 256.483 328.793 245.568C330.158 253.754 336.979 260.576 346.529 260.576C351.986 260.576 364.265 260.576 364.265 260.576C364.265 260.576 364.265 174.625 364.265 169.168V167.804C362.901 144.611 354.715 121.418 339.708 105.046ZM313.787 211.465C304.237 221.015 287.865 225.108 272.858 225.108C257.851 225.108 242.843 221.015 233.293 211.465C223.743 201.915 219.651 185.544 219.651 170.536C219.651 155.529 223.743 140.522 233.293 130.972C242.843 121.422 259.215 117.329 274.222 117.329C289.229 117.329 304.237 121.422 313.787 130.972C323.337 140.522 327.429 156.894 327.429 171.901C327.429 185.544 324.701 201.915 313.787 211.465Z" fill="#2B59C3"/>
</svg>
